# xmcd
#
# Track frame offsets: 
#        150
#        11455
#        21542
#        32657
#        43302
#        55982
#        67090
#        77170
#        88840
#        97520
#        108512
#        118655
#        129045
#        139635
#        152322
#        163600
#        176575
#        185305
#        196707
#        208375
#        218965
#        228172
#        238982
#        249950
#        260552
#        270907
#        281940
#        292272
#        302747
#        315975
#        324535
#
# Disc length: 4490 seconds
#
# Revision: 6
# Processed by: cddbd v1.5.2PL0 Copyright (c) Steve Scherf et al.
# Submitted via: ExactAudioCopyFreeDBPlugin 1.0
#
DISCID=b911881f
DTITLE=Various Artist - Crescent City Soul:  The Sound of New Orleans
DTITLE=, 1947-1974 [EMI]
DYEAR=1996
DGENRE=Rhythm and Blues
TTITLE0=The Spiders - I'm Slippin' In
TTITLE1=Billy Tate - Single Life
TTITLE2=Pee Wee Crayton - Runnin' Wild
TTITLE3=Dave Bartholomew - Four Winds
TTITLE4=Shirley and Lee - Feel So Good
TTITLE5=Wee Willie Wayne - Travelin' Mood
TTITLE6=Dave Bartholomew - Would You
TTITLE7=The Spiders - Witchcraft
TTITLE8=Fats Domino - I'm in Love Again
TTITLE9=Smiley Lewis - One Night
TTITLE10=Bobby Mitchell - Try Rock 'n' Roll
TTITLE11=Shirley Lewis - One Night
TTITLE12=Smiley Lewis - Someday
TTITLE13=Lee Allen - Rockin' at Cosmo's
TTITLE14=Amos Milburn - Chicken Shack Boogie
TTITLE15=Charles Brown - Please Believe Me
TTITLE16=Smiley Lewis - Shame, Shame, Shame
TTITLE17=Chris Kenner - Sick and Tired
TTITLE18=Johnny Fuller - Sister Jenny
TTITLE19=Ruth and Al - I'll Be the Bee
TTITLE20=Fats Domino - I'm Walkin'
TTITLE21=Faye Adams - Keeper of My Heart
TTITLE22=Bobby Mitchell - I'll  Gonna Be a Wheel Someday
TTITLE23=Fats Domino - I Want to Walk You Home
TTITLE24=Jessie Hill - Ooh Poo Pah Doo, Part 2
TTITLE25=Allen and Allen - Tiddle Winks
TTITLE26=Aaron Neville - Over You
TTITLE27=Jessie Hill - Whip it on Me
TTITLE28=Ernie K-Doe - Hello My Lover
TTITLE29=Bobby Charles - I Just Want You
TTITLE30=Fats Domino - It Keeps Rainin'
EXTD=
EXTT0=
EXTT1=
EXTT2=
EXTT3=
EXTT4=
EXTT5=
EXTT6=
EXTT7=
EXTT8=
EXTT9=
EXTT10=
EXTT11=
EXTT12=
EXTT13=
EXTT14=
EXTT15=
EXTT16=
EXTT17=
EXTT18=
EXTT19=
EXTT20=
EXTT21=
EXTT22=
EXTT23=
EXTT24=
EXTT25=
EXTT26=
EXTT27=
EXTT28=
EXTT29=
EXTT30=
PLAYORDER=
